<svg xmlns="http://www.w3.org/2000/svg" xmlns:xlink="http://www.w3.org/1999/xlink" width="86.116" height="97.757" viewBox="0 0 86.116 97.757">
  <defs>
    <radialGradient id="radial-gradient" cx="0.5" cy="0.5" r="0.412" gradientTransform="matrix(1.625, -0.225, 0.642, 1.666, -0.634, -0.221)" gradientUnits="objectBoundingBox">
      <stop offset="0" stop-color="#f38020"/>
      <stop offset="0.31" stop-color="#f17d20"/>
      <stop offset="0.55" stop-color="#ea7322"/>
      <stop offset="0.77" stop-color="#df6224"/>
      <stop offset="0.98" stop-color="#cf4b27"/>
      <stop offset="1" stop-color="#cd4827"/>
    </radialGradient>
  </defs>
  <g id="logo_mocha_final_3" data-name="logo mocha final 3" transform="translate(-226.1 -182)">
    <path id="Path_96" data-name="Path 96" d="M299.009,413.986l34.454-20.1a8.616,8.616,0,0,0,4.253-7.438V346.111a8.616,8.616,0,0,0-4.253-7.438l-4.339-2.534v45.288a8.616,8.616,0,0,1-4.253,7.438l-30.6,17.847L290.35,414C293.5,415.541,296.323,415.548,299.009,413.986Z" transform="translate(-25.543 -135.4)" fill="url(#radial-gradient)"/>
    <path id="Path_97" data-name="Path 97" d="M312.766,334.85c0-.371,0-.784-.03-1.215a8.908,8.908,0,0,0-.134-1.215,6.765,6.765,0,0,0-.231-.966c-.1-.316-.213-.608-.328-.881a6.349,6.349,0,0,0-.3-.608c-.079-.158-.134-.243-.134-.243h0a7.768,7.768,0,0,0-.79-1.155,8,8,0,0,0-2.327-2l-17.215-10.044L274.04,306.473a8.611,8.611,0,0,0-8.677,0L248.13,316.523,230.9,326.574a8.622,8.622,0,0,0-4.253,7.438h0v40.378h0a8.653,8.653,0,0,0,4.253,7.438l2.175,1.264,2.169,1.264h0V339.037a7.906,7.906,0,0,1,.042-.851c.03-.28.067-.559.122-.832a8.6,8.6,0,0,1,4.108-5.742l12.919-7.541,12.919-7.541a8.6,8.6,0,0,1,8.671,0l2.145,1.246,2.139,1.246-15.088,8.8-15.094,8.8a8.6,8.6,0,0,0-4.254,7.437v40.354a8.616,8.616,0,0,0,4.254,7.444l2.169,1.264,2.169,1.264v-45.3a8.6,8.6,0,0,1,4.254-7.438l12.931-7.547,12.931-7.541a8.592,8.592,0,0,1,8.234-.243l2.358,1.373,2.358,1.373-15.064,8.8-15.1,8.8a8.051,8.051,0,0,0-.717.468,8.233,8.233,0,0,0-.662.535,8.447,8.447,0,0,0-2.133,2.892,8.58,8.58,0,0,0-.766,3.549v40.323a8.616,8.616,0,0,0,4.254,7.444h0l.182.1.182.1a9.619,9.619,0,0,0,2.68.826,10.162,10.162,0,0,0,1.3.14h.3a3.578,3.578,0,0,0,.668-.049,8.585,8.585,0,0,0,.936-.158,7.989,7.989,0,0,0,.96-.286,8.7,8.7,0,0,0,1.009-.45c.34-.176.693-.383,1.118-.638l1.823-1.045s-3.245,1.823-5,.759a3.573,3.573,0,0,1-1.823-3.512V359.144a8.592,8.592,0,0,1,3.792-7.134c.073-.055.152-.1.231-.152a1.985,1.985,0,0,1,.243-.146l15.076-8.8,15.082-8.8,2.868-1.562a3.646,3.646,0,0,1,3.944-.152c1.823,1.106,1.823,4.582,1.823,4.582v-.79C312.741,335.737,312.766,335.214,312.766,334.85Z" transform="translate(-0.55 -123.3)" fill="#f38020"/>
  </g>
</svg>
